<svg width="280" height="280" viewBox="0 0 280 280" fill="none" xmlns="http://www.w3.org/2000/svg">
<circle cx="140" cy="140" r="140" fill="black"/>
<path d="M64.12 182V97.52H91.896L121.976 154.736H122.232V97.52H142.712V182H116.6L84.856 122.864H84.6V182H64.12ZM152.483 182V143.728V114.416H170.019V141.936H171.043C171.555 135.28 172.664 129.819 174.371 125.552C176.078 121.2 178.51 117.957 181.667 115.824C184.824 113.691 188.835 112.624 193.699 112.624C201.038 112.624 206.542 115.056 210.211 119.92C213.966 124.784 215.843 132.037 215.843 141.68V182H195.107V144.368C195.107 139.76 194.382 136.304 192.931 134C191.566 131.696 189.347 130.544 186.275 130.544C183.715 130.544 181.454 131.44 179.491 133.232C177.528 135.024 175.992 137.925 174.883 141.936C173.774 145.947 173.219 151.323 173.219 158.064V182H152.483Z" fill="white"/>
</svg>
